<svg id="Layer_5" data-name="Layer 5" xmlns="http://www.w3.org/2000/svg" viewBox="0 0 40.04 48"><defs><style>.cls-1{fill:#6dccdd;}.cls-2{fill:#464443;}.cls-3{fill:#646161;}.cls-4{fill:#676464;}</style></defs><path class="cls-1" d="M11.19,47.92a7.61,7.61,0,0,1-7.11-6.8A25,25,0,0,1,5.7,29.56a9.79,9.79,0,0,1,4.42-5.31,9.51,9.51,0,0,1,4.4-1.08,2.77,2.77,0,0,1,1.43.52l2,1.25a11,11,0,0,0,6.81,1.87,11.21,11.21,0,0,0,5.05-1.67,14.22,14.22,0,0,0,1.6-1.05,4.57,4.57,0,0,1,4.12-.72,9,9,0,0,1,6.18,4.86,20.18,20.18,0,0,1,2,6.74A31.65,31.65,0,0,1,44,40.3a7.67,7.67,0,0,1-6.32,7.5c-.29.06-.59.08-.88.12s-.4,0-.58.08H11.67C11.52,47.89,11.34,48,11.19,47.92Z" transform="translate(-3.98)"/><path class="cls-1" d="M24.89,0c.56.2,1.17.2,1.75.36A11.12,11.12,0,0,1,34,6.31a11,11,0,0,1-.51,11.39,10.94,10.94,0,0,1-8.84,5.37c-4.94.33-8.63-1.78-11.12-6a10.73,10.73,0,0,1-1.25-7.36A11.44,11.44,0,0,1,19,1,9.65,9.65,0,0,1,22.17.09c.09,0,.22.05.28-.09h.19a.91.91,0,0,0,.65,0Z" transform="translate(-3.98)"/><path class="cls-2" d="M23.27,0a.53.53,0,0,1-.65,0Z" transform="translate(-3.98)"/><path class="cls-3" d="M36.21,48a.74.74,0,0,1,.58-.08.11.11,0,0,0,0,.08Z" transform="translate(-3.98)"/><path class="cls-4" d="M11.17,47.92a.52.52,0,0,1,.48.08h-.47A.11.11,0,0,0,11.17,47.92Z" transform="translate(-3.98)"/></svg>