<svg id="Layer_1" data-name="Layer 1" xmlns="http://www.w3.org/2000/svg" viewBox="0 0 47.99 47.99"><defs><style>.cls-1{fill:#6dccdd;}.cls-2{fill:#f6f6f6;}.cls-3{fill:#fff;}</style></defs><path class="cls-1" d="M46.92,48H15.08a1.38,1.38,0,0,1-1.18-1.59c0-2.06,0-4.12,0-6.18V29c0-.17,0-.34,0-.52,0-.51.14-.64.66-.73.22,0,.44-.05.65-.09a14.8,14.8,0,0,0,5.52-2.11,2.84,2.84,0,0,1,1.63-.46H40.05c1.55,0,1.94-.39,1.94-1.94V13.28a4.06,4.06,0,0,0,0-.7,1.29,1.29,0,0,0-1.13-1.15,4.54,4.54,0,0,0-.74,0H28.43a.59.59,0,0,1-.64-.55,16.87,16.87,0,0,0-1.33-4.67c-.22-.51-.1-.66.47-.69H46.45A1.37,1.37,0,0,1,48,6.66V46.92A1.12,1.12,0,0,1,46.92,48Z" transform="translate(-0.01 -0.01)"/><path class="cls-1" d="M13.87,0c.7.2,1.45.23,2.15.45C21,2,24.15,5.38,25.09,10.54a12.55,12.55,0,0,1-10,14.53A12.69,12.69,0,0,1,.18,14.8c0-.25,0-.53-.17-.75v-2.8A9.82,9.82,0,0,1,.8,7.86,12.8,12.8,0,0,1,9.91.16c.44-.1.9,0,1.33-.15Z" transform="translate(-0.01 -0.01)"/><path class="cls-2" d="M46.92,48a2,2,0,0,0,1-1c0,.34.13.82,0,1S47.26,48,46.92,48Z" transform="translate(-0.01 -0.01)"/><path class="cls-3" d="M35.11,39.34c1.86,0,3.71,0,5.57,0a1.38,1.38,0,0,1,1.39,1,1.36,1.36,0,0,1-.54,1.52,1.52,1.52,0,0,1-.88.26H29.57a1.4,1.4,0,1,1,0-2.8C31.43,39.33,33.27,39.34,35.11,39.34Z" transform="translate(-0.01 -0.01)"/><path class="cls-3" d="M22.49,28.1c.46,0,.91,0,1.36,0a1.45,1.45,0,0,1,1.44,1.42,1.42,1.42,0,0,1-1.42,1.38q-1.38,0-2.76,0a1.43,1.43,0,0,1-1.44-1.41,1.45,1.45,0,0,1,1.47-1.39C21.59,28.09,22,28.1,22.49,28.1Z" transform="translate(-0.01 -0.01)"/><path class="cls-3" d="M30.9,30.91c-.45,0-.91,0-1.36,0a1.41,1.41,0,1,1,0-2.81c.91,0,1.81,0,2.71,0a1.41,1.41,0,1,1,0,2.81C31.8,30.92,31.35,30.91,30.9,30.91Z" transform="translate(-0.01 -0.01)"/><path class="cls-3" d="M39.3,30.91c-.43,0-.87,0-1.31,0a1.41,1.41,0,1,1,0-2.81q1.34,0,2.67,0a1.41,1.41,0,1,1,0,2.81C40.21,30.92,39.75,30.91,39.3,30.91Z" transform="translate(-0.01 -0.01)"/><path class="cls-3" d="M22.45,36.53c-.44,0-.88,0-1.31,0a1.4,1.4,0,1,1,0-2.8h2.66a1.41,1.41,0,1,1,0,2.81Z" transform="translate(-0.01 -0.01)"/><path class="cls-3" d="M30.94,33.72h1.31a1.4,1.4,0,1,1,0,2.8c-.89,0-1.77,0-2.66,0a1.4,1.4,0,1,1,0-2.8Z" transform="translate(-0.01 -0.01)"/><path class="cls-3" d="M39.32,36.53H38a1.41,1.41,0,1,1,0-2.81H40.7a1.4,1.4,0,1,1,0,2.8C40.23,36.54,39.78,36.53,39.32,36.53Z" transform="translate(-0.01 -0.01)"/><path class="cls-3" d="M22.47,42.14H21.16a1.4,1.4,0,1,1,0-2.8c.88,0,1.75,0,2.62,0a1.4,1.4,0,1,1,0,2.8Z" transform="translate(-0.01 -0.01)"/><path class="cls-1" d="M24.55,22.44a15.24,15.24,0,0,0,3.13-6.53c.11-.5.18-1,.24-1.52,0-.24.09-.34.36-.34H39c.27,0,.3.1.3.32q0,3.89,0,7.77c0,.25,0,.35-.32.35H24.7Z" transform="translate(-0.01 -0.01)"/><path class="cls-3" d="M11.24,20.23c.18-.56-.08-1-.74-1.21a2.82,2.82,0,0,1-1.2-1,1.39,1.39,0,0,1,.22-1.93,1.36,1.36,0,0,1,1.92.16,1.44,1.44,0,0,0,1.61.57,1.38,1.38,0,0,0,1-1.54,1.41,1.41,0,0,0-1.39-1.21,4.21,4.21,0,0,1-4.18-3.71,4.15,4.15,0,0,1,2.41-4.29c.28-.12.38-.25.36-.54a10.59,10.59,0,0,1,0-1.26,1.4,1.4,0,1,1,2.8,0c0,.45,0,.91,0,1.36a.36.36,0,0,0,.27.41A4,4,0,0,1,16,7.28a1.39,1.39,0,0,1-.21,2,1.35,1.35,0,0,1-1.92-.19,1.44,1.44,0,0,0-1.55-.49A1.34,1.34,0,0,0,11.25,10a1.39,1.39,0,0,0,1.37,1.22A4.23,4.23,0,0,1,16,12.9a4.15,4.15,0,0,1-1.51,6.32.57.57,0,0,0-.42.65,8.37,8.37,0,0,1,0,1.12,1.4,1.4,0,1,1-2.8,0C11.24,20.79,11.24,20.57,11.24,20.23Z" transform="translate(-0.01 -0.01)"/></svg>