<svg id="Layer_1" data-name="Layer 1" xmlns="http://www.w3.org/2000/svg" viewBox="0 0 49.79 47.39"><defs><style>.cls-1{fill:#6dccdd;}.cls-2{fill:#f4f4f4;}</style></defs><path class="cls-1" d="M.11,18.59c.24-.75.29-1.54.57-2.28A10.7,10.7,0,0,1,9.12,9.07,1.93,1.93,0,0,0,10.6,8,12.14,12.14,0,0,1,28.43,3.52,2.74,2.74,0,0,0,30.05,4,10.64,10.64,0,0,1,38.61,8,2.83,2.83,0,0,0,40.51,9a10.8,10.8,0,0,1,9.14,8.53,10.92,10.92,0,0,1-6,12c-.3.14-.38.12-.44-.24a14.57,14.57,0,0,0-.91-3.41c-.14-.33,0-.46.22-.64a6.55,6.55,0,0,0-2.35-12,5.64,5.64,0,0,0-1.69-.09A2.17,2.17,0,0,1,36.19,12a6.62,6.62,0,0,0-3.85-3.36,6.84,6.84,0,0,0-3.45-.2A2.13,2.13,0,0,1,27,7.82,8.17,8.17,0,0,0,22.75,5.7a7.93,7.93,0,0,0-8.84,5.42,3.48,3.48,0,0,1-.52,1.24,2.17,2.17,0,0,1-1.92.84,6.54,6.54,0,0,0-7,7.46,6.29,6.29,0,0,0,2.92,4.6c.32.2.39.35.24.71a15,15,0,0,0-.89,3.37c0,.36-.15.38-.44.23a10.82,10.82,0,0,1-6-7.78,2.61,2.61,0,0,0-.19-.87v-.29a1,1,0,0,0,0-.68Z" transform="translate(-0.11 -1.3)"/><path class="cls-1" d="M25,16A16.37,16.37,0,1,1,8.63,32.35,16.39,16.39,0,0,1,25,16Z" transform="translate(-0.11 -1.3)"/><path class="cls-2" d="M38,32.39a13,13,0,1,1-12.83-13A13,13,0,0,1,38,32.39Z" transform="translate(-0.11 -1.3)"/><path class="cls-1" d="M25,28.39a1.52,1.52,0,0,1,.48,0c1.25.5,2.42,0,3.6-.25,1.34-.23,2.66-.54,4-.81.34-.07.69-.12.89.27s-.06.64-.31.88l-4.47,4.32a1.52,1.52,0,0,0-.43.68,3.91,3.91,0,0,1-4.35,2.76A4,4,0,0,1,21,32.11,4,4,0,0,1,25,28.39Z" transform="translate(-0.11 -1.3)"/><path class="cls-1" d="M25,41.46H19.56c-.35,0-.5,0-.47-.44a14.22,14.22,0,0,0,0-1.46c0-.26.06-.36.35-.36H30.55c.29,0,.35.11.34.37,0,.46,0,.94,0,1.4s-.07.5-.47.49C28.61,41.45,26.8,41.46,25,41.46Z" transform="translate(-0.11 -1.3)"/></svg>