<svg id="Layer_12" data-name="Layer 12" xmlns="http://www.w3.org/2000/svg" viewBox="0 0 48 48.13"><defs><style>.cls-1{fill:#6dccdd;}.cls-2{fill:#fff;}</style></defs><path class="cls-1" d="M44.37,48.07H21.63c0-.24.19-.34.34-.46a15.63,15.63,0,0,0,5.16-7,16.36,16.36,0,0,0,.77-3.14c.12-.76.17-.8.93-.8H39.35a4.22,4.22,0,0,0,.71,0,1.24,1.24,0,0,0,0-2.47,4.1,4.1,0,0,0-.7,0H28.62a.59.59,0,0,1-.69-.58,15.77,15.77,0,0,0-.5-2.44,13.85,13.85,0,0,0-.74-2c-.38-.81-.3-.93.61-.93H39.38a4.1,4.1,0,0,0,.7,0,1.24,1.24,0,0,0,0-2.46,3.74,3.74,0,0,0-.75,0c-4.58,0-9.17,0-13.76,0a2.12,2.12,0,0,1-1.72-.76,14.76,14.76,0,0,0-7.21-4.36,14.62,14.62,0,0,0-4.88-.49c-.48,0-.6-.07-.63-.53a3,3,0,0,1,0-.42V4.32A4.39,4.39,0,0,1,13.3.4,3.79,3.79,0,0,1,14.86,0H35.72a1.1,1.1,0,0,1,.16.81v9.53c0,1.25.47,1.71,1.7,1.72H47a5.33,5.33,0,0,1,.56,0c.27,0,.45.13.41.44a2.62,2.62,0,0,0,0,.28q0,15.6,0,31.19a4.18,4.18,0,0,1-2.07,3.7A4.09,4.09,0,0,1,44.37,48.07Z" transform="translate(0 0.05)"/><path class="cls-1" d="M11.29,48.07a13.72,13.72,0,0,0-1.57-.35C4.47,46.25,1.2,42.87.21,37.51A12.68,12.68,0,1,1,14.85,47.9a2.26,2.26,0,0,0-.93.17Z" transform="translate(0 0.05)"/><path class="cls-2" d="M29.57,19.88H19.47A1.49,1.49,0,0,1,18,19a1.42,1.42,0,0,1,1.22-1.91H39.71a1.51,1.51,0,0,1,1.55.9,1.41,1.41,0,0,1-1.41,1.91c-1.22,0-2.44,0-3.66,0Z" transform="translate(0 0.05)"/><path class="cls-2" d="M11.76,33c0,.94,0,.93.92.94a7,7,0,0,1,1.12,0,2.89,2.89,0,0,1,2.61,2.59,7.68,7.68,0,0,1,0,2.44,2.79,2.79,0,0,1-1.93,2.26.46.46,0,0,0-.35.53,1.44,1.44,0,0,1-1.42,1.54,1.43,1.43,0,0,1-1.38-1.56c0-.31-.11-.41-.38-.51a2.91,2.91,0,0,1-2-2.61,1.38,1.38,0,0,1,1.14-1.53,1.33,1.33,0,0,1,1.61,1.07c.07.38.21.49.57.45s1,.18,1.27-.08.05-.87.1-1.31-.08-.54-.48-.5a10.76,10.76,0,0,1-1.27,0A2.92,2.92,0,0,1,9,34.33a7.65,7.65,0,0,1,0-2.57,2.77,2.77,0,0,1,2-2.3c.24-.09.34-.18.34-.45a1.41,1.41,0,1,1,2.8,0c0,.29.11.38.35.47a2.9,2.9,0,0,1,2,2.6,1.39,1.39,0,0,1-1.12,1.55,1.34,1.34,0,0,1-1.62-1c-.08-.39-.23-.53-.6-.47a2.41,2.41,0,0,1-.38,0C11.76,32.1,11.76,32.1,11.76,33Z" transform="translate(0 0.05)"/><path class="cls-1" d="M47,9.35H38.81c-.19,0-.27,0-.27-.25q0-4.11,0-8.22s0,0,0,0Z" transform="translate(0 0.05)"/></svg>