<svg id="Layer_4" data-name="Layer 4" xmlns="http://www.w3.org/2000/svg" viewBox="0 0 48 34.27"><defs><style>.cls-1{fill:#6dccdd;}.cls-2{fill:#fff;}</style></defs><path class="cls-1" d="M24,17.15H47.45c.44,0,.55.1.55.54,0,6.05,0,12.1,0,18.15a5.11,5.11,0,0,1-5.33,5.31H5.34A5.11,5.11,0,0,1,0,35.83c0-6,0-12.1,0-18.15,0-.44.11-.54.55-.54Z" transform="translate(0 -6.86)"/><path class="cls-1" d="M24,13.72H.58c-.46,0-.59-.09-.58-.57A7.27,7.27,0,0,1,.52,9.77,4.94,4.94,0,0,1,5.1,6.88q18.9,0,37.8,0A5.1,5.1,0,0,1,48,12c0,.48,0,1,0,1.44,0,.24-.06.33-.3.3H24Z" transform="translate(0 -6.86)"/><path class="cls-2" d="M32.51,32.57H27.65a1.73,1.73,0,1,1,0-3.43h9.89a1.72,1.72,0,1,1,0,3.43Z" transform="translate(0 -6.86)"/></svg>