<svg id="Layer_6" data-name="Layer 6" xmlns="http://www.w3.org/2000/svg" viewBox="0 0 39.51 47.82"><defs><style>.cls-1{fill:#6dccdd;}.cls-2{fill:#fff;}</style></defs><path class="cls-1" d="M24.19,47.91h-.38a19.92,19.92,0,0,1-7.57-3.35,26.77,26.77,0,0,1-6.07-5.76A28.47,28.47,0,0,1,4.38,24.05c-.07-.8-.11-1.61-.12-2.42,0-4,0-8.09,0-12.13A1,1,0,0,1,5,8.39C8.11,7,11.26,5.6,14.42,4.19L23.24.27a1.69,1.69,0,0,1,1.52,0L37,5.71c2,.89,4,1.8,6.06,2.68a1,1,0,0,1,.71,1.11c0,4,0,8.09,0,12.13a28.22,28.22,0,0,1-3.89,14.15,27.59,27.59,0,0,1-8.24,8.89,23.19,23.19,0,0,1-6.47,3.08C24.83,47.84,24.5,47.81,24.19,47.91Z" transform="translate(-4.24 -0.09)"/><path class="cls-2" d="M24,24l-7.23,0c-2.52,0-5,0-7.57,0-.33,0-.4-.09-.4-.41,0-3.88,0-7.75,0-11.63a.45.45,0,0,1,.3-.49L23.77,5a.55.55,0,0,1,.17,0c.1.07.06.18.06.26V23.75A2.4,2.4,0,0,1,24,24Z" transform="translate(-4.24 -0.09)"/><path class="cls-2" d="M24,24l.37,0H38.81l.36,0C37.92,33.89,31,41.38,24,43.33V24.53c0-.17,0-.35,0-.52Z" transform="translate(-4.24 -0.09)"/></svg>