<svg id="Layer_7" data-name="Layer 7" xmlns="http://www.w3.org/2000/svg" viewBox="0 0 47.98 48"><defs><style>.cls-1{fill:#6dccdd;}</style></defs><path class="cls-1" d="M11.21,24c0-1.35,0-2.7,0-4A12.8,12.8,0,0,1,36.56,17.5a11,11,0,0,1,.24,2.23c0,2.79,0,5.59,0,8.39A12.8,12.8,0,0,1,11.43,30.5a20.65,20.65,0,0,1-.22-4.08Z" transform="translate(-0.01)"/><path class="cls-1" d="M8,24.52v5.8A1.55,1.55,0,0,1,6.34,32a17,17,0,0,1-3.19-.09A4,4,0,0,1,0,28.05Q0,24,0,20A4,4,0,0,1,4,16c.36,0,.83.12,1.07-.06s.19-.66.28-1C7.4,7,12.42,2,20.41.38A19.1,19.1,0,0,1,42.77,15.23c.17.78.17.82,1,.78A4,4,0,0,1,48,20v8a4,4,0,0,1-4,4c-1,0-1,0-1.27,1A18.94,18.94,0,0,1,29.12,47.3,16.71,16.71,0,0,1,24,48a1.6,1.6,0,0,1,0-3.2,15.83,15.83,0,0,0,11.15-4.55,15,15,0,0,0,4.76-10.19,86.59,86.59,0,0,0,0-12.58,15.25,15.25,0,0,0-7-11.57,15.29,15.29,0,0,0-9.48-2.66,16,16,0,0,0-15,12.8A18.29,18.29,0,0,0,8,19.82C8,21.39,8,23,8,24.52Z" transform="translate(-0.01)"/></svg>