<svg id="Layer_5" data-name="Layer 5" xmlns="http://www.w3.org/2000/svg" viewBox="0 0 20.01 23.99"><defs><style>.cls-1{fill:#015578;}.cls-2{fill:#464443;}.cls-3{fill:#646161;}.cls-4{fill:#676464;}</style></defs><path class="cls-1" d="M5.57,24A3.8,3.8,0,0,1,2,20.56a12.64,12.64,0,0,1,.81-5.78A4.9,4.9,0,0,1,5,12.12a4.82,4.82,0,0,1,2.2-.53,1.33,1.33,0,0,1,.72.25l1,.63a5.49,5.49,0,0,0,3.41.93,5.58,5.58,0,0,0,2.52-.83,8.42,8.42,0,0,0,.8-.52,2.24,2.24,0,0,1,2.06-.36,4.45,4.45,0,0,1,3.08,2.42,10.29,10.29,0,0,1,1,3.37A15.82,15.82,0,0,1,22,20.14a3.85,3.85,0,0,1-3.16,3.76l-.44.05c-.09.05-.2,0-.29.05H5.82C5.74,23.94,5.65,24,5.57,24Z" transform="translate(-1.97 0)"/><path class="cls-1" d="M12.42,0a8.57,8.57,0,0,0,.88.18,5.61,5.61,0,0,1,3.68,3,5.52,5.52,0,0,1-.26,5.69,5.45,5.45,0,0,1-4.42,2.69,5.63,5.63,0,0,1-5.55-3,5.37,5.37,0,0,1-.63-3.68A5.74,5.74,0,0,1,9.47.49,5.15,5.15,0,0,1,11.06.05s.11,0,.14,0h.1a.47.47,0,0,0,.33,0Z" transform="translate(-1.97 0)"/><path class="cls-2" d="M11.63,0a.26.26,0,0,1-.33,0Z" transform="translate(-1.97 0)"/><path class="cls-3" d="M18.09,24a.37.37,0,0,1,.29-.05.09.09,0,0,0,0,.05Z" transform="translate(-1.97 0)"/><path class="cls-4" d="M5.57,24a.28.28,0,0,1,.25.05H5.58S5.58,24,5.57,24Z" transform="translate(-1.97 0)"/></svg>