<svg id="Layer_9" data-name="Layer 9" xmlns="http://www.w3.org/2000/svg" viewBox="0 0 21 20.31"><defs><style>.cls-1{fill:#015578;}</style></defs><path class="cls-1" d="M12.37,19.69v-.23c0-2.33,0-4.67,0-7a.34.34,0,0,1,.19-.33c2-1.17,4.06-2.36,6.09-3.55.16-.09.25-.11.24.12s0,.25,0,.37c0,2,0,3.95,0,5.93A1.61,1.61,0,0,1,18,16.52c-1.72,1-3.43,1.95-5.14,2.94A2.09,2.09,0,0,1,12.37,19.69Z" transform="translate(-1.5 -1.84)"/><path class="cls-1" d="M11.61,19.68a.84.84,0,0,1-.4-.17L5.84,16.35a1.39,1.39,0,0,1-.75-1.28c0-2.06,0-4.11,0-6.16,0-.5,0-.5.44-.25l5.94,3.49a.25.25,0,0,1,.16.24c0,2.41,0,4.81,0,7.22A.2.2,0,0,1,11.61,19.68Z" transform="translate(-1.5 -1.84)"/><path class="cls-1" d="M5.58,7.81,11.3,4.44a1.28,1.28,0,0,1,1.36,0c1.9,1.11,3.8,2.24,5.7,3.37l.08.07-.62.36L12.19,11.5c-.11.06-.2.11-.33,0L5.68,7.89Z" transform="translate(-1.5 -1.84)"/><path class="cls-1" d="M1.5,5.53V3.45A1.47,1.47,0,0,1,3,1.86c1.22,0,2.44,0,3.65,0a.41.41,0,0,1,.44.4.41.41,0,0,1-.46.37c-1.17,0-2.34,0-3.51,0a.82.82,0,0,0-.85.86c0,1.45,0,2.89,0,4.34a.38.38,0,0,1-.22.4.35.35,0,0,1-.39-.05A.43.43,0,0,1,1.5,7.8C1.51,7.05,1.5,6.29,1.5,5.53Z" transform="translate(-1.5 -1.84)"/><path class="cls-1" d="M22.5,5.54V7.79c0,.28-.16.46-.39.45s-.36-.18-.36-.45c0-1.43,0-2.86,0-4.29a.82.82,0,0,0-.87-.89c-1.17,0-2.33,0-3.49,0a.41.41,0,0,1-.46-.37.42.42,0,0,1,.44-.4h3.44l.37,0A1.51,1.51,0,0,1,22.5,3.34Z" transform="translate(-1.5 -1.84)"/><path class="cls-1" d="M22.5,18.46v2.09A1.49,1.49,0,0,1,21,22.14c-1.19,0-2.37,0-3.56,0a.41.41,0,0,1-.46-.39c0-.23.19-.38.48-.38H20.9a.76.76,0,0,0,.85-.85c0-1.44,0-2.89,0-4.33a.43.43,0,0,1,.22-.41.37.37,0,0,1,.4.05.42.42,0,0,1,.14.35C22.49,17,22.5,17.71,22.5,18.46Z" transform="translate(-1.5 -1.84)"/><path class="cls-1" d="M2.25,18.4v2.15a.76.76,0,0,0,.83.83H6.52a.77.77,0,0,1,.3,0,.36.36,0,0,1,.23.37.33.33,0,0,1-.27.34.85.85,0,0,1-.23,0H3.11a1.52,1.52,0,0,1-1.58-1.22,1.45,1.45,0,0,1,0-.3v-4.4c0-.29.14-.47.37-.47s.38.18.38.48Z" transform="translate(-1.5 -1.84)"/></svg>