<svg id="Layer_8" data-name="Layer 8" xmlns="http://www.w3.org/2000/svg" viewBox="0 0 23.7 23.69"><defs><style>.cls-1{fill:#015578;}.cls-2{fill:#fff;}</style></defs><path class="cls-1" d="M12,.16c2.15,0,4.3,0,6.45,0a5.41,5.41,0,0,1,5.39,5.41c0,2.86,0,5.71,0,8.57a5.41,5.41,0,0,1-4.41,5.32,6.48,6.48,0,0,1-1.16.09H12.61a.93.93,0,0,0-.52.15C10.14,21,8.18,22.31,6.21,23.62a1.08,1.08,0,0,1-1.51-.17,1.2,1.2,0,0,1-.24-.82c0-1,0-2,0-3,0-.18,0-.25-.23-.29a5.33,5.33,0,0,1-4-4.45,4.86,4.86,0,0,1-.06-.85V5.63A5.39,5.39,0,0,1,5.65.16Z" transform="translate(-0.15 -0.15)"/><path class="cls-2" d="M12,4a3,3,0,0,1,2.83,2,3,3,0,0,1-1,3.3,1.94,1.94,0,0,0-.87,1.8c0,.29,0,.59,0,.89a1,1,0,0,1-1,1,1,1,0,0,1-1-1,8.76,8.76,0,0,1,.07-2,3.61,3.61,0,0,1,1.44-2.19A1,1,0,0,0,13,6.78,1,1,0,0,0,12.23,6a1,1,0,0,0-1.21.8,3.7,3.7,0,0,1-.08.48A1,1,0,0,1,9.8,8,1,1,0,0,1,9,7,3,3,0,0,1,12,4Z" transform="translate(-0.15 -0.15)"/><path class="cls-2" d="M12,16a1,1,0,1,1,0-2,1,1,0,0,1,0,2Z" transform="translate(-0.15 -0.15)"/></svg>