<svg id="Layer_1" data-name="Layer 1" xmlns="http://www.w3.org/2000/svg" viewBox="0 0 47.78 45.47"><defs><style>.cls-1{fill:#045679;}.cls-2{fill:#f4f4f4;}</style></defs><path class="cls-1" d="M1.11,18.85c.24-.72.29-1.47.55-2.19a10.29,10.29,0,0,1,8.1-6.95,1.83,1.83,0,0,0,1.42-1A11.65,11.65,0,0,1,28.29,4.39a2.61,2.61,0,0,0,1.56.47,10.2,10.2,0,0,1,8.21,3.78,2.66,2.66,0,0,0,1.82,1,10.4,10.4,0,0,1,8.78,8.19,10.51,10.51,0,0,1-5.73,11.54c-.3.13-.37.11-.43-.23a14.23,14.23,0,0,0-.87-3.27c-.13-.32-.05-.45.21-.62a6.29,6.29,0,0,0-2.25-11.51A5.94,5.94,0,0,0,38,13.67a2.07,2.07,0,0,1-2.23-1.17A6.28,6.28,0,0,0,32,9.28a6.52,6.52,0,0,0-3.31-.2,2,2,0,0,1-1.84-.56,7.79,7.79,0,0,0-4.05-2,7.62,7.62,0,0,0-8.48,5.2,3.47,3.47,0,0,1-.5,1.19,2.11,2.11,0,0,1-1.84.81A6.28,6.28,0,0,0,5.3,20.84a6,6,0,0,0,2.81,4.41.46.46,0,0,1,.23.68,13.88,13.88,0,0,0-.86,3.23c-.05.35-.14.37-.42.22A10.38,10.38,0,0,1,1.3,21.92a2.34,2.34,0,0,0-.19-.83v-.28a.94.94,0,0,0,0-.66Z" transform="translate(-1.11 -2.26)"/><path class="cls-1" d="M25,16.33A15.71,15.71,0,1,1,9.3,32.05,15.74,15.74,0,0,1,25,16.33Z" transform="translate(-1.11 -2.26)"/><path class="cls-2" d="M37.46,32.09a12.46,12.46,0,1,1-12.3-12.5A12.5,12.5,0,0,1,37.46,32.09Z" transform="translate(-1.11 -2.26)"/><path class="cls-1" d="M25,28.25a1.7,1.7,0,0,1,.46,0c1.2.48,2.32,0,3.46-.24s2.55-.52,3.82-.77c.33-.07.67-.12.86.26s-.06.61-.3.84L29,32.51a1.42,1.42,0,0,0-.41.66,3.75,3.75,0,0,1-4.18,2.64A3.8,3.8,0,0,1,25,28.25Z" transform="translate(-1.11 -2.26)"/><path class="cls-1" d="M25,40.8H19.78c-.33,0-.48,0-.45-.42a13.08,13.08,0,0,0,0-1.4c0-.25.06-.35.33-.35H30.33c.28,0,.33.11.33.36a12.16,12.16,0,0,0,0,1.35c0,.35-.07.47-.45.47C28.47,40.78,26.73,40.8,25,40.8Z" transform="translate(-1.11 -2.26)"/></svg>