<svg id="Layer_12" data-name="Layer 12" xmlns="http://www.w3.org/2000/svg" viewBox="0 0 23.95 24"><defs><style>.cls-1{fill:#015578;}.cls-2{fill:#fff;}</style></defs><path class="cls-1" d="M22.17,24H10.83c0-.13.09-.18.17-.24a7.67,7.67,0,0,0,2.57-3.5A8.28,8.28,0,0,0,14,18.7c.06-.38.08-.4.46-.4H20a.62.62,0,0,0,0-1.24H14.32a.3.3,0,0,1-.35-.29,7.34,7.34,0,0,0-.25-1.22,8.87,8.87,0,0,0-.36-1c-.19-.41-.16-.47.3-.47h6a2.08,2.08,0,0,0,.35,0,.64.64,0,0,0,.55-.61.65.65,0,0,0-.54-.62,2.3,2.3,0,0,0-.37,0H12.8a1,1,0,0,1-.85-.38,7.32,7.32,0,0,0-3.6-2.17A7.37,7.37,0,0,0,5.92,10c-.24,0-.3,0-.32-.26V2.18A2.2,2.2,0,0,1,6.68.23,2,2,0,0,1,7.45,0H17.86a.58.58,0,0,1,.07.41c0,1.5,0,3,0,4.49a2.26,2.26,0,0,0,0,.26c0,.62.23.85.84.86h5c.13,0,.22.07.2.23v.14q0,7.77,0,15.54a2.08,2.08,0,0,1-1,1.85A1.94,1.94,0,0,1,22.17,24Z" transform="translate(-0.05 0)"/><path class="cls-1" d="M5.67,24a5.19,5.19,0,0,0-.78-.18A6.18,6.18,0,0,1,.15,18.73a6.32,6.32,0,1,1,7.3,5.18A.93.93,0,0,0,7,24Z" transform="translate(-0.05 0)"/><path class="cls-2" d="M22.17,24a4.17,4.17,0,0,0,.67-.25A2.07,2.07,0,0,0,24,21.88V6.31c0-.18,0-.22-.21-.22h-5a.74.74,0,0,1-.84-.85V0h6C24,0,24,0,24,.16Q24,12,24,23.83c0,.15,0,.17-.17.17C23.28,24,22.72,24,22.17,24Z" transform="translate(-0.05 0)"/><path class="cls-2" d="M14.79,9.94h-5A.73.73,0,0,1,9,9.49a.7.7,0,0,1,.6-1H19.85a.75.75,0,0,1,.77.45.71.71,0,0,1-.7,1H14.79Z" transform="translate(-0.05 0)"/><path class="cls-2" d="M5.91,16.5c0,.47,0,.47.46.47a5.28,5.28,0,0,1,.56,0,1.45,1.45,0,0,1,1.3,1.3,3.78,3.78,0,0,1,0,1.21,1.38,1.38,0,0,1-1,1.13.21.21,0,0,0-.17.26.7.7,0,1,1-1.4,0c0-.15,0-.2-.19-.25a1.44,1.44,0,0,1-1-1.3.69.69,0,0,1,.57-.77.68.68,0,0,1,.8.54c0,.19.1.24.29.22s.49.09.63,0,0-.43,0-.65,0-.27-.24-.25a4.42,4.42,0,0,1-.63,0,1.45,1.45,0,0,1-1.44-1.23,3.93,3.93,0,0,1,0-1.28,1.38,1.38,0,0,1,1-1.14c.12-.05.17-.09.17-.23a.72.72,0,0,1,.69-.8.7.7,0,0,1,.7.79c0,.14.06.19.18.24a1.44,1.44,0,0,1,1,1.29.7.7,0,0,1-.55.78.67.67,0,0,1-.81-.53c0-.19-.12-.26-.3-.23H6.39C5.91,16,5.91,16,5.91,16.5Z" transform="translate(-0.05 0)"/><path class="cls-1" d="M23.49,4.69H19.4c-.1,0-.14,0-.14-.12,0-1.37,0-2.74,0-4.1h0Z" transform="translate(-0.05 0)"/></svg>