<svg width="1107" height="904" viewBox="0 0 1107 904" fill="none" xmlns="http://www.w3.org/2000/svg">
<path fill-rule="evenodd" clip-rule="evenodd" d="M300.27 31.6084C300.27 14.1516 314.422 0 331.878 0H774.396C791.853 0 806.004 14.1516 806.004 31.6084V474.126C806.004 491.583 791.853 505.734 774.396 505.734L600.574 505.734V676.419H616.361C633.817 676.419 647.969 690.571 647.969 708.027V711.189H1074.69C1092.14 711.189 1106.29 725.34 1106.29 742.797V837.622C1106.29 855.079 1092.14 869.23 1074.69 869.23H647.969V872.391C647.969 889.848 633.817 903.999 616.36 903.999H489.927C472.47 903.999 458.319 889.848 458.319 872.391V869.23H31.6084C14.1516 869.23 0 855.079 0 837.622V742.797C0 725.34 14.1516 711.189 31.6084 711.189H458.319V708.027C458.319 690.571 472.47 676.419 489.927 676.419H505.748V505.734L331.878 505.734C314.422 505.734 300.27 491.583 300.27 474.126V31.6084ZM472.368 111.112V391.587H404.047V111.112H472.368ZM735.633 201.407C735.633 217.655 731.904 232.571 724.446 246.155C716.988 259.473 705.534 270.261 690.085 278.518C674.637 286.775 655.459 290.904 632.552 290.904H590.201V391.587H521.88V111.112H632.552C654.926 111.112 673.838 114.974 689.286 122.698C704.735 130.423 716.322 141.077 724.046 154.661C731.771 168.246 735.633 183.828 735.633 201.407ZM627.358 236.567C640.41 236.567 650.132 233.503 656.524 227.377C662.917 221.251 666.113 212.594 666.113 201.407C666.113 190.22 662.917 181.564 656.524 175.437C650.132 169.311 640.41 166.248 627.358 166.248H590.201V236.567H627.358Z" fill="#015578"/>
</svg>
