<svg id="Layer_4" data-name="Layer 4" xmlns="http://www.w3.org/2000/svg" viewBox="0 0 21 15"><defs><style>.cls-1{fill:#025878;}.cls-2{fill:#fff;}</style></defs><path class="cls-1" d="M12,9H22.26c.19,0,.24,0,.24.24,0,2.64,0,5.29,0,7.94a2.25,2.25,0,0,1-2.34,2.32H3.84A2.25,2.25,0,0,1,1.5,17.18c0-2.65,0-5.3,0-7.94,0-.2.05-.24.24-.24Z" transform="translate(-1.5 -4.5)"/><path class="cls-1" d="M12,7.5H1.75c-.2,0-.26,0-.25-.25a3.16,3.16,0,0,1,.23-1.49,2.15,2.15,0,0,1,2-1.26H20.27A2.24,2.24,0,0,1,22.5,6.74c0,.21,0,.42,0,.63s0,.15-.13.13H12Z" transform="translate(-1.5 -4.5)"/><path class="cls-2" d="M15.72,15.75H13.59a.75.75,0,1,1,0-1.5h4.32a.75.75,0,1,1,0,1.5Z" transform="translate(-1.5 -4.5)"/></svg>