<svg id="Layer_1" data-name="Layer 1" xmlns="http://www.w3.org/2000/svg" viewBox="0 0 99.99 100"><defs><style>.cls-1{fill:#015578;}.cls-2{fill:#fefefe;}</style></defs><path class="cls-1" d="M60.69,78.46a38.06,38.06,0,0,1-5.56,1.47,23.77,23.77,0,0,1-3.57.39c-.5,0-.66.19-.65.69,0,3.67,0,7.34,0,11,0,.54.27.69.67.9a3.66,3.66,0,0,1,1.93,4.35,3.77,3.77,0,0,1-7.34-.37,3.69,3.69,0,0,1,2.09-4,.88.88,0,0,0,.6-.93c0-3.6,0-7.2,0-10.8,0-.66-.2-.83-.83-.86a26.85,26.85,0,0,1-8.26-1.65c-.58-.21-.78-.13-.77.54,0,2.72,0,5.44,0,8.16,0,3.09-1.75,4.85-4.84,4.88-1.59,0-3.17,0-4.76,0a1,1,0,0,0-1.14.66,3.7,3.7,0,0,1-4.34,2,3.79,3.79,0,0,1,.14-7.33,3.71,3.71,0,0,1,4.22,2,1,1,0,0,0,1,.64c1.66,0,3.32,0,5,0A2.42,2.42,0,0,0,37,87.51c0-3.07,0-6.14,0-9.21a1.05,1.05,0,0,0-.68-1.13A30,30,0,0,1,22.71,63.58a1.08,1.08,0,0,0-1.13-.68c-3.07,0-6.14,0-9.21,0A2.42,2.42,0,0,0,9.68,65.6c0,1.66,0,3.32,0,5a1,1,0,0,0,.65,1,3.7,3.7,0,0,1,2,4.23A3.78,3.78,0,0,1,5,75.94a3.69,3.69,0,0,1,1.89-4.29,1.18,1.18,0,0,0,.76-1.29c0-1.62,0-3.24,0-4.87a4.35,4.35,0,0,1,4.66-4.61c2.79,0,5.58,0,8.37,0,.67,0,.76-.18.54-.77a27.13,27.13,0,0,1-1.66-8.36c0-.63-.28-.73-.84-.73q-5.38,0-10.79,0a.88.88,0,0,0-1,.59,3.62,3.62,0,0,1-4.2,2,3.76,3.76,0,0,1-.09-7.3,3.63,3.63,0,0,1,4.3,2A.9.9,0,0,0,8,49c3.6,0,7.2,0,10.8,0,.31,0,.76.16.78-.42a31.14,31.14,0,0,1,1.9-9.35c-3,0-6,0-8.88,0-3.15,0-4.89-1.75-4.91-4.91,0-1.55,0-3.11,0-4.66a1.18,1.18,0,0,0-.77-1.28A3.65,3.65,0,0,1,5,24.14,3.77,3.77,0,0,1,12.28,24a3.68,3.68,0,0,1-2,4.42,1,1,0,0,0-.63,1c0,1.66,0,3.32,0,5a2.38,2.38,0,0,0,2.65,2.7c3.1,0,6.21,0,9.32,0a1,1,0,0,0,1-.67A30,30,0,0,1,36.33,22.81a1,1,0,0,0,.64-1c0-3.11,0-6.21,0-9.32A2.38,2.38,0,0,0,34.34,9.8c-1.69,0-3.38,0-5.08,0a.9.9,0,0,0-1,.59A3.69,3.69,0,0,1,24,12.45a3.78,3.78,0,0,1,0-7.32,3.7,3.7,0,0,1,4.32,2,1,1,0,0,0,1.05.62c1.66,0,3.32,0,5,0A4.39,4.39,0,0,1,39,12.49c0,3,0,6,0,9.08a33,33,0,0,1,7.15-1.73l1-.12c1.62-.1,1.62-.09,1.62-1.77,0-3.21,0-6.42,0-9.63A1.17,1.17,0,0,0,48.12,7a3.56,3.56,0,0,1-1.89-4.17,3.76,3.76,0,0,1,7.3,0,3.62,3.62,0,0,1-1.91,4.17,1,1,0,0,0-.72,1.08c0,3.57,0,7.13,0,10.7,0,.42-.09.83.59.85a30,30,0,0,1,9.19,1.88V14.32c0-.67,0-1.34,0-2a4.36,4.36,0,0,1,4.43-4.53c1.77,0,3.53,0,5.3,0a1,1,0,0,0,1-.63,3.69,3.69,0,0,1,4.33-2,3.77,3.77,0,0,1-.07,7.31,3.68,3.68,0,0,1-4.28-2.09.9.9,0,0,0-1-.58c-1.69,0-3.39,0-5.08,0a2.35,2.35,0,0,0-2.63,2.6c0,3.11,0,6.21,0,9.32a1.07,1.07,0,0,0,.73,1.1A30,30,0,0,1,77,36.42a1.13,1.13,0,0,0,1.22.71c3,0,6,0,9,0,2,0,2.81-.86,2.82-2.85,0-1.48,0-3,0-4.45a1.36,1.36,0,0,0-.86-1.53,3.63,3.63,0,0,1-1.82-4.13,3.82,3.82,0,0,1,3.52-2.87,3.75,3.75,0,0,1,3.68,2.5,3.66,3.66,0,0,1-1.8,4.58,1.11,1.11,0,0,0-.73,1.19c0,1.59,0,3.18,0,4.76,0,3.1-1.77,4.86-4.85,4.87-2.92,0-5.85,0-8.87,0,.39,1.4.8,2.72,1.13,4.06a22.08,22.08,0,0,1,.67,4.92c0,.65.23.82.87.81,3.56,0,7.13,0,10.69,0a1,1,0,0,0,1-.63,3.62,3.62,0,0,1,4.22-2,3.76,3.76,0,0,1,0,7.3,3.62,3.62,0,0,1-4.24-2,1,1,0,0,0-1-.65c-3.6,0-7.2,0-10.79,0-.41,0-.77,0-.78.56a30.52,30.52,0,0,1-1.9,9.28h8.86a6,6,0,0,1,2,.25,4.27,4.27,0,0,1,2.94,4c.06,1.76,0,3.53,0,5.29a1.1,1.1,0,0,0,.69,1.22,3.64,3.64,0,0,1,1.95,4.26,3.78,3.78,0,0,1-7.31,0,3.67,3.67,0,0,1,2-4.25,1,1,0,0,0,.7-1.09c0-1.66,0-3.32,0-5a2.4,2.4,0,0,0-2.63-2.63c-3.11,0-6.21,0-9.32,0a1.05,1.05,0,0,0-1.1.72A29.92,29.92,0,0,1,63.52,77.14a1.2,1.2,0,0,0-.77,1.29c0,3,0,6,0,9,0,1.91.88,2.77,2.79,2.78,1.62,0,3.25,0,4.87,0a1,1,0,0,0,1-.61,3.69,3.69,0,0,1,4.2-2.08,3.78,3.78,0,0,1,.09,7.34,3.67,3.67,0,0,1-4.26-2,1,1,0,0,0-1.12-.68c-1.65,0-3.31,0-5,0a4.41,4.41,0,0,1-4.71-4.79C60.68,84.48,60.69,81.51,60.69,78.46Z" transform="translate(0.12 0)"/><path class="cls-2" d="M49.93,30.12H60c1.67,0,2.2.48,2.41,2.11a3.21,3.21,0,0,0,2.92,2.88c1.6.24,2.08.75,2.07,2.35,0,3.67.19,7.34-.11,11A22.85,22.85,0,0,1,56.16,66.69c-1.66,1-3.46,1.89-5.19,2.84a1.84,1.84,0,0,1-1.81.18c-3.46-1.81-7-3.48-9.81-6.31a23.44,23.44,0,0,1-7-16.94c0-3,0-6,0-9,0-1.61.46-2.11,2.06-2.35a3.21,3.21,0,0,0,2.93-3c.17-1.47.77-2,2.29-2Z" transform="translate(0.12 0)"/><path class="cls-1" d="M49.87,32.19c3.17,0,6.35,0,9.52,0,.64,0,1,.07,1.1.85a5,5,0,0,0,4.2,4c.47.08.66.17.65.69-.11,3.8.25,7.62-.2,11.41A20.79,20.79,0,0,1,55,65c-1.43.89-2.93,1.67-4.41,2.49-.29.16-.54.38-1,.16-3.3-1.8-6.72-3.41-9.34-6.25a21.09,21.09,0,0,1-5.79-13.81c-.13-3.24,0-6.49-.06-9.74,0-.58.18-.73.75-.82a4.94,4.94,0,0,0,4.12-4.12c.11-.67.39-.76,1-.76C43.45,32.2,46.66,32.19,49.87,32.19Z" transform="translate(0.12 0)"/><path class="cls-2" d="M49.88,57.83c-.92,0-1.84,0-2.75,0s-1.46-.56-1.35-1.57c.12-1.23.26-2.46.41-3.68a4.59,4.59,0,0,0-.52-3.37,4.55,4.55,0,0,1,1.31-6,4.79,4.79,0,0,1,6.82,6.58,1.79,1.79,0,0,0-.38,1.44c.22,1.61.37,3.22.54,4.83.14,1.33-.29,1.8-1.65,1.81Z" transform="translate(0.12 0)"/><path class="cls-1" d="M49.78,55.76c-2,0-1.94,0-1.68-1.95.17-1.26.28-2.52.46-3.78a.94.94,0,0,0-.39-.89,2.73,2.73,0,0,1-.24-4.1,2.76,2.76,0,0,1,3.9,0,2.7,2.7,0,0,1-.24,4.09,1.09,1.09,0,0,0-.35,1.1c.2,1.54.33,3.09.56,4.62.11.77-.11,1-.86.92A7.48,7.48,0,0,0,49.78,55.76Z" transform="translate(0.12 0)"/></svg>