<svg id="Layer_6" data-name="Layer 6" xmlns="http://www.w3.org/2000/svg" viewBox="0 0 19.5 23.61"><defs><style>.cls-1{fill:#015578;}.cls-2{fill:#fff;}</style></defs><path class="cls-1" d="M12.24,23.83h-.19a9.88,9.88,0,0,1-3.73-1.66,13.05,13.05,0,0,1-3-2.84,14.2,14.2,0,0,1-2.86-7.28c0-.4,0-.8,0-1.19,0-2,0-4,0-6a.51.51,0,0,1,.35-.54L7.42,2.25,11.77.31a.83.83,0,0,1,.75,0l6,2.68,3,1.33a.5.5,0,0,1,.35.54c0,2,0,4,0,6a14,14,0,0,1-1.92,7,13.67,13.67,0,0,1-4.07,4.39,11.39,11.39,0,0,1-3.19,1.51C12.56,23.79,12.39,23.77,12.24,23.83Z" transform="translate(-2.39 -0.22)"/><path class="cls-2" d="M12.14,12H4.83c-.16,0-.2,0-.2-.21,0-1.91,0-3.82,0-5.74a.22.22,0,0,1,.15-.24L12,2.62l.09,0c.05,0,0,.09,0,.13V11.9a.68.68,0,0,1,0,.14Z" transform="translate(-2.39 -0.22)"/><path class="cls-2" d="M12.13,12l.18,0h7.33c-.62,4.87-4,8.57-7.49,9.54V12.28c0-.08,0-.17,0-.25Z" transform="translate(-2.39 -0.22)"/></svg>