<svg id="Layer_7" data-name="Layer 7" xmlns="http://www.w3.org/2000/svg" viewBox="0 0 23.46 23.47"><defs><style>.cls-1{fill:#015578;}</style></defs><path class="cls-1" d="M5.75,12c0-.65,0-1.31,0-2A6.26,6.26,0,0,1,18.14,8.82a5.68,5.68,0,0,1,.12,1.09c0,1.37,0,2.74,0,4.1a6.26,6.26,0,0,1-12.4,1.17,10.28,10.28,0,0,1-.1-2Z" transform="translate(-0.27 -0.27)"/><path class="cls-1" d="M4.18,12.25v2.84a.76.76,0,0,1-.82.82,8.9,8.9,0,0,1-1.55,0A2,2,0,0,1,.27,14V10A1.94,1.94,0,0,1,2.2,8.1c.18,0,.41.05.52,0s.1-.33.14-.5A9.16,9.16,0,0,1,10.24.45,9.34,9.34,0,0,1,21.18,7.71c.08.39.08.4.47.38A2,2,0,0,1,23.7,9.7a2,2,0,0,1,0,.34V14a1.94,1.94,0,0,1-2,2c-.5,0-.49,0-.62.49a9.26,9.26,0,0,1-6.64,7,8.12,8.12,0,0,1-2.5.34.78.78,0,0,1,0-1.56,7.7,7.7,0,0,0,5.45-2.23,7.31,7.31,0,0,0,2.33-5,43.53,43.53,0,0,0,0-6.15,7.45,7.45,0,0,0-3.43-5.65,7.52,7.52,0,0,0-4.64-1.31A7.83,7.83,0,0,0,4.34,8.11,9.57,9.57,0,0,0,4.18,10C4.19,10.72,4.18,11.49,4.18,12.25Z" transform="translate(-0.27 -0.27)"/></svg>